<svg t="1592755836610" class="icon" viewBox="0 0 1024 1024" version="1.1" xmlns="http://www.w3.org/2000/svg" p-id="4749" width="200" height="200"><path d="M146.285714 694.838857a36.571429 36.571429 0 0 1 36.48 33.828572L182.857143 731.428571V804.571429a36.571429 36.571429 0 0 0 33.828571 36.48L219.428571 841.142857h73.142858a36.571429 36.571429 0 0 1 2.742857 73.051429L292.571429 914.285714h-73.142858a109.714286 109.714286 0 0 1-109.641142-105.6L109.714286 804.571429v-73.161143a36.571429 36.571429 0 0 1 36.571428-36.571429zM877.714286 694.857143a36.571429 36.571429 0 0 1 36.48 33.828571L914.285714 731.428571v73.142858a109.714286 109.714286 0 0 1-105.6 109.641142L804.571429 914.285714h-73.142858a36.571429 36.571429 0 0 1-2.742857-73.051428L731.428571 841.142857h73.142858a36.571429 36.571429 0 0 0 36.48-33.828571L841.142857 804.571429v-73.142858a36.571429 36.571429 0 0 1 36.571429-36.571428zM694.857143 256a73.142857 73.142857 0 0 1 73.142857 73.142857v365.714286a73.142857 73.142857 0 0 1-73.142857 73.142857H329.142857a73.142857 73.142857 0 0 1-73.142857-73.142857V329.142857a73.142857 73.142857 0 0 1 73.142857-73.142857z m0 73.142857H329.142857v365.714286h365.714286V329.142857z m109.714286-219.428571a109.714286 109.714286 0 0 1 109.641142 105.6L914.285714 219.428571v73.142858a36.571429 36.571429 0 0 1-73.051428 2.742857L841.142857 292.571429v-73.142858a36.571429 36.571429 0 0 0-33.828571-36.48L804.571429 182.857143h-73.142858a36.571429 36.571429 0 0 1-2.742857-73.051429L731.428571 109.714286h73.142858zM292.571429 109.714286a36.571429 36.571429 0 0 1 2.742857 73.051428L292.571429 182.857143h-73.142858a36.571429 36.571429 0 0 0-36.48 33.828571L182.857143 219.428571v73.124572a36.571429 36.571429 0 0 1-73.051429 2.742857L109.714286 292.534857V219.428571a109.714286 109.714286 0 0 1 105.6-109.641142L219.428571 109.714286h73.142858z" fill="#ffffff" p-id="4750"></path></svg>